<svg width="24" height="24" viewBox="0 0 24 24" fill="none" xmlns="http://www.w3.org/2000/svg">
<path d="M13.9998 13.7498C13.1664 13.7498 12.4581 13.4581 11.8748 12.8748C11.2914 12.2914 10.9998 11.5831 10.9998 10.7498C10.9998 9.91642 11.2914 9.20809 11.8748 8.62476C12.4581 8.04142 13.1664 7.74976 13.9998 7.74976C14.8331 7.74976 15.5414 8.04142 16.1248 8.62476C16.7081 9.20809 16.9998 9.91642 16.9998 10.7498C16.9998 11.5831 16.7081 12.2914 16.1248 12.8748C15.5414 13.4581 14.8331 13.7498 13.9998 13.7498ZM6.99976 16.7498C6.44976 16.7498 5.97892 16.5539 5.58726 16.1623C5.19559 15.7706 4.99976 15.2998 4.99976 14.7498V6.74976C4.99976 6.19976 5.19559 5.72892 5.58726 5.33726C5.97892 4.94559 6.44976 4.74976 6.99976 4.74976H20.9998C21.5498 4.74976 22.0206 4.94559 22.4123 5.33726C22.8039 5.72892 22.9998 6.19976 22.9998 6.74976V14.7498C22.9998 15.2998 22.8039 15.7706 22.4123 16.1623C22.0206 16.5539 21.5498 16.7498 20.9998 16.7498H6.99976ZM8.99976 14.7498H18.9998C18.9998 14.1998 19.1956 13.7289 19.5873 13.3373C19.9789 12.9456 20.4498 12.7498 20.9998 12.7498V8.74976C20.4498 8.74976 19.9789 8.55392 19.5873 8.16226C19.1956 7.77059 18.9998 7.29976 18.9998 6.74976H8.99976C8.99976 7.29976 8.80392 7.77059 8.41226 8.16226C8.02059 8.55392 7.54976 8.74976 6.99976 8.74976V12.7498C7.54976 12.7498 8.02059 12.9456 8.41226 13.3373C8.80392 13.7289 8.99976 14.1998 8.99976 14.7498ZM19.9998 20.7498H2.99976C2.44976 20.7498 1.97892 20.5539 1.58726 20.1623C1.19559 19.7706 0.999756 19.2998 0.999756 18.7498V7.74976H2.99976V18.7498H19.9998V20.7498ZM6.99976 14.7498V6.74976V14.7498Z" fill="#EB5119"/>
</svg>
