<svg width="24" height="24" viewBox="0 0 24 24" fill="none" xmlns="http://www.w3.org/2000/svg">
<path d="M5.99976 22.7498C5.16642 22.7498 4.45809 22.4581 3.87476 21.8748C3.29142 21.2914 2.99976 20.5831 2.99976 19.7498V16.7498H5.99976V2.74976L7.49976 4.24976L8.99976 2.74976L10.4998 4.24976L11.9998 2.74976L13.4998 4.24976L14.9998 2.74976L16.4998 4.24976L17.9998 2.74976L19.4998 4.24976L20.9998 2.74976V19.7498C20.9998 20.5831 20.7081 21.2914 20.1248 21.8748C19.5414 22.4581 18.8331 22.7498 17.9998 22.7498H5.99976ZM17.9998 20.7498C18.2831 20.7498 18.5206 20.6539 18.7123 20.4623C18.9039 20.2706 18.9998 20.0331 18.9998 19.7498V5.74976H7.99976V16.7498H16.9998V19.7498C16.9998 20.0331 17.0956 20.2706 17.2873 20.4623C17.4789 20.6539 17.7164 20.7498 17.9998 20.7498ZM8.99976 9.74976V7.74976H14.9998V9.74976H8.99976ZM8.99976 12.7498V10.7498H14.9998V12.7498H8.99976ZM16.9998 9.74976C16.7164 9.74976 16.4789 9.65392 16.2873 9.46226C16.0956 9.27059 15.9998 9.03309 15.9998 8.74976C15.9998 8.46642 16.0956 8.22892 16.2873 8.03726C16.4789 7.84559 16.7164 7.74976 16.9998 7.74976C17.2831 7.74976 17.5206 7.84559 17.7123 8.03726C17.9039 8.22892 17.9998 8.46642 17.9998 8.74976C17.9998 9.03309 17.9039 9.27059 17.7123 9.46226C17.5206 9.65392 17.2831 9.74976 16.9998 9.74976ZM16.9998 12.7498C16.7164 12.7498 16.4789 12.6539 16.2873 12.4623C16.0956 12.2706 15.9998 12.0331 15.9998 11.7498C15.9998 11.4664 16.0956 11.2289 16.2873 11.0373C16.4789 10.8456 16.7164 10.7498 16.9998 10.7498C17.2831 10.7498 17.5206 10.8456 17.7123 11.0373C17.9039 11.2289 17.9998 11.4664 17.9998 11.7498C17.9998 12.0331 17.9039 12.2706 17.7123 12.4623C17.5206 12.6539 17.2831 12.7498 16.9998 12.7498ZM5.99976 20.7498H14.9998V18.7498H4.99976V19.7498C4.99976 20.0331 5.09559 20.2706 5.28726 20.4623C5.47892 20.6539 5.71642 20.7498 5.99976 20.7498ZM4.99976 20.7498C4.99976 20.7498 4.99976 20.6539 4.99976 20.4623C4.99976 20.2706 4.99976 20.0331 4.99976 19.7498V18.7498V20.7498Z" fill="#EB5119"/>
</svg>
