<svg width="36" height="36" viewBox="0 0 36 36" fill="none" xmlns="http://www.w3.org/2000/svg">
<rect width="36" height="36" rx="8" fill="#EB5119"/>
<path fill-rule="evenodd" clip-rule="evenodd" d="M25.7376 16.8132C26.1791 16.7182 26.3432 16.7795 26.3791 16.7968C26.3939 16.8276 26.4274 16.9286 26.4042 17.1669C26.3705 17.5128 26.2252 18.0024 25.9287 18.6151C25.34 19.8316 24.2543 21.3316 22.793 22.793C21.3316 24.2543 19.8317 25.34 18.6151 25.9287C18.0024 26.2252 17.5128 26.3704 17.1669 26.4042C16.9286 26.4274 16.8276 26.3938 16.7968 26.3791C16.7795 26.3432 16.7182 26.1791 16.8132 25.7376C16.9282 25.2028 17.2345 24.4829 17.752 23.6409C18.3788 22.6209 19.2749 21.4873 20.3811 20.3811C21.4873 19.2749 22.6209 18.3788 23.6409 17.7519C24.4829 17.2345 25.2028 16.9282 25.7376 16.8132ZM8.20601 20.6202L15.3799 27.7941C15.9407 28.3549 16.7014 28.459 17.3609 28.3947C18.0293 28.3296 18.7575 28.0816 19.4862 27.729C20.9527 27.0194 22.631 25.7834 24.2072 24.2072C25.7834 22.631 27.0194 20.9527 27.729 19.4862C28.0816 18.7575 28.3296 18.0293 28.3947 17.3609C28.459 16.7014 28.3549 15.9407 27.7941 15.3799L20.6202 8.206C19.9264 7.51221 18.9383 7.51293 18.1431 7.68395C17.3041 7.86438 16.3668 8.29216 15.4199 8.87407C14.249 9.59365 12.9941 10.5918 11.793 11.793C10.5918 12.9941 9.59365 14.249 8.87407 15.4199C8.29217 16.3668 7.86439 17.3041 7.68395 18.1431C7.51293 18.9383 7.51221 19.9264 8.20601 20.6202Z" fill="white"/>
</svg>
